# xmcd
#
# Track frame offsets: 
#        150
#        15471
#        26443
#        44405
#        57182
#        75116
#        94605
#        110832
#        129248
#        147651
#        163515
#        182329
#        206879
#        229471
#
# Disc length: 3423 seconds
#
# Revision: 1
# Processed by: cddbd v1.5.2PL0 Copyright (c) Steve Scherf et al.
# Submitted via: ExactAudioCopy v1.3
#
DISCID=b30d5d0e
DTITLE=Whiskey Myers - Whiskey Myers
DYEAR=2019
DGENRE=Southern rock
TTITLE0=Die Rockin
TTITLE1=Mona Lisa
TTITLE2=Rolling Stone
TTITLE3=Bitch
TTITLE4=Gasoline
TTITLE5=Bury My Bones
TTITLE6=Glitter Ain't Gold
TTITLE7=Houston Country Sky
TTITLE8=Little More Money
TTITLE9=California to Caroline
TTITLE10=Kentucky Gold
TTITLE11=Running
TTITLE12=Hammer
TTITLE13=Bad Weather
EXTD=
EXTT0=
EXTT1=
EXTT2=
EXTT3=
EXTT4=
EXTT5=
EXTT6=
EXTT7=
EXTT8=
EXTT9=
EXTT10=
EXTT11=
EXTT12=
EXTT13=
PLAYORDER=
